<?xml version="1.0" standalone="no"?>
<!DOCTYPE svg PUBLIC "-//W3C//DTD SVG 20010904//EN"
 "http://www.w3.org/TR/2001/REC-SVG-20010904/DTD/svg10.dtd">
<svg version="1.0" xmlns="http://www.w3.org/2000/svg"
 width="1108.000000pt" height="1280.000000pt" viewBox="0 0 1108.000000 1280.000000"
 preserveAspectRatio="xMidYMid meet">
<metadata>
Created by potrace 1.15, written by Peter Selinger 2001-2017
</metadata>
<g transform="translate(0.000000,1280.000000) scale(0.100000,-0.100000)"
fill="#000000" stroke="none">
<path d="M5280 12389 c-209 -23 -368 -54 -542 -105 -820 -239 -1367 -830
-1482 -1599 -36 -242 -41 -689 -11 -1090 3 -43 2 -52 -4 -30 l-9 30 -1 -30 c0
-17 -7 -54 -15 -83 -7 -29 -10 -52 -6 -52 4 0 -9 -17 -30 -38 -62 -62 -75
-121 -74 -342 0 -146 5 -210 22 -301 72 -384 206 -719 311 -773 30 -16 78 -9
107 15 11 9 14 8 14 -5 0 -9 4 -16 8 -16 14 0 101 -92 108 -114 7 -21 7 -21
16 -1 7 17 8 15 5 -7 -2 -15 -1 -25 3 -23 4 2 31 -73 60 -168 227 -740 285
-965 342 -1337 19 -124 22 -187 22 -430 1 -186 -4 -313 -12 -365 -24 -151 -45
-245 -52 -240 -4 2 -5 -6 -3 -18 2 -12 -1 -33 -6 -47 -10 -23 -11 -22 -5 10 5
30 1 27 -24 -25 -16 -33 -50 -80 -75 -104 -26 -24 -44 -47 -42 -51 2 -3 -35
-26 -83 -49 -242 -121 -1722 -835 -1890 -912 -375 -172 -588 -314 -803 -535
-355 -366 -540 -822 -653 -1604 -23 -157 -76 -587 -76 -617 0 -26 225 -158
398 -233 915 -397 2970 -700 4742 -700 1772 0 3827 303 4742 700 173 75 398
207 398 233 0 30 -53 460 -76 617 -68 471 -160 812 -293 1085 -107 219 -203
356 -360 519 -215 221 -428 363 -803 535 -168 77 -1648 791 -1890 912 -48 23
-85 46 -83 49 2 4 -16 27 -42 51 -25 24 -59 71 -75 104 -25 52 -29 55 -24 25
6 -32 5 -33 -5 -10 -5 14 -8 35 -6 47 2 12 1 20 -3 18 -7 -5 -28 89 -52 240
-8 52 -13 179 -12 365 0 243 3 306 22 430 57 372 115 597 342 1337 29 95 56
170 60 168 4 -2 6 8 4 23 -2 15 -1 19 2 9 5 -15 11 -11 34 22 16 21 41 47 55
58 15 10 34 25 43 33 15 14 22 14 57 2 22 -7 54 -11 71 -7 97 18 218 262 287
575 43 194 52 276 52 480 0 179 -2 201 -24 263 -15 44 -36 82 -60 108 -21 21
-35 39 -30 39 4 0 1 24 -7 53 -7 28 -14 66 -15 82 l-1 30 -9 -30 c-6 -22 -7
-13 -4 30 30 401 25 848 -11 1090 -132 882 -837 1526 -1839 1679 -235 36 -515
46 -705 25z"/>
</g>
</svg>
